<svg width="16" height="17" fill="none" xmlns="http://www.w3.org/2000/svg"><path d="M2.45505 2.2378H2.43064L.889294 3.01212.800781 2.16098 2.7328 1.19922H3.67897L2.24751 10.9428H1.1762L2.45505 2.2378ZM7.73079 10.0026C7.63923 9.98109 7.54766 9.95344 7.45915 9.92578L7.13867 10.9029C7.22718 10.9336 7.31875 10.9582 7.40726 10.9828L7.73079 10.0026ZM7.03145 9.75296C6.93378 9.70687 6.83917 9.6577 6.74455 9.60547L6.41797 10.598C6.51259 10.6471 6.61026 10.6932 6.70792 10.7362L7.03145 9.75296ZM12.1754 2.40697C12.1265 2.35781 12.0746 2.31172 12.0228 2.26562L11.6504 3.39946C11.6992 3.45477 11.7481 3.51007 11.7938 3.56846L12.1754 2.40697ZM7.37581 9.89577C7.2812 9.86197 7.18658 9.8251 7.09501 9.78516L6.77148 10.7684C6.86305 10.8084 6.95767 10.8422 7.05228 10.876L7.37581 9.89577ZM11.3655 1.76953 11.0176 2.82655C11.0817 2.87264 11.1458 2.9218 11.2068 2.97404L11.5609 1.90166C11.4968 1.85557 11.4327 1.81255 11.3655 1.76953ZM8.47334 10.1114C8.38788 10.1083 8.30547 10.0991 8.22307 10.0898L7.89648 11.0854C7.97889 11.0977 8.0613 11.11 8.14371 11.1192L8.47334 10.1114ZM11.8768 2.13911C11.8188 2.09302 11.7608 2.04692 11.7028 2.00391L11.3457 3.09165C11.4037 3.14388 11.4586 3.19612 11.5105 3.25143L11.8768 2.13911ZM8.86287 10.1172C8.80488 10.1203 8.74384 10.1203 8.68279 10.1203H8.62175L8.28906 11.1373C8.36537 11.1435 8.44472 11.1465 8.52408 11.1496L8.86287 10.1172ZM8.09773 10.0765C8.00922 10.0642 7.92376 10.0458 7.83525 10.0273L7.51172 11.0106C7.59718 11.0321 7.68264 11.0506 7.77115 11.0659L8.09773 10.0765ZM9.9707 2.27879C10.0592 2.30951 10.1477 2.34331 10.2332 2.38019L10.5689 1.36005C10.4804 1.32625 10.395 1.29245 10.3034 1.26172L9.9707 2.27879ZM11.241 1.69322C11.1708 1.6502 11.0976 1.61026 11.0243 1.57031L10.6855 2.60582C10.7588 2.64884 10.829 2.69185 10.8992 2.74102L11.241 1.69322ZM10.334 2.42639C10.4133 2.46326 10.4927 2.50321 10.5721 2.54623L10.9108 1.51687C10.8315 1.47692 10.7521 1.44005 10.6697 1.40625L10.334 2.42639ZM9.5957 2.17249C9.69337 2.19399 9.79104 2.22165 9.88566 2.25238L10.2214 1.23531C10.1268 1.20458 10.0291 1.17693 9.93144 1.15234L9.5957 2.17249ZM8.81055 2.06957C8.92653 2.07264 9.04251 2.08186 9.15849 2.09415L9.49728 1.05864C9.38435 1.04021 9.27142 1.02484 9.15544 1.01562L8.81055 2.06957ZM9.21094 2.10274C9.31776 2.11811 9.42459 2.13654 9.52836 2.15805L9.8641 1.13484C9.76033 1.11026 9.65655 1.08875 9.54973 1.07031L9.21094 2.10274ZM6.37138 10.5728 6.69796 9.57723C6.59724 9.51884 6.49957 9.45432 6.40495 9.38672L6.07227 10.4007C6.16993 10.4622 6.27066 10.5206 6.37138 10.5728ZM11.6324 8.8125C11.5744 8.87703 11.5134 8.94155 11.4493 8.99994L10.9121 10.6346 11.0586 10.5609 11.6324 8.8125ZM12.0284 8.79688H11.9277L11.418 10.3486C11.4607 10.3209 11.5065 10.2902 11.5492 10.2595L12.0284 8.79688ZM12.4168 8.79688H12.3344L11.959 9.93993C11.9987 9.90613 12.0353 9.87233 12.075 9.83853L12.4168 8.79688ZM11.0726 9.32422C11.0116 9.37031 10.9505 9.41333 10.8895 9.45327L10.4316 10.8421C10.4866 10.8206 10.5385 10.8022 10.5934 10.7776L11.0726 9.32422ZM12.9043 5.81396H13.005L13.4567 4.44046C13.4415 4.3913 13.4232 4.34213 13.4049 4.29297L12.9043 5.81396ZM12.807 8.79688H12.746L12.5781 9.30683C12.6148 9.26382 12.6514 9.21774 12.685 9.17166L12.807 8.79688ZM10.5778 9.64062C10.5137 9.67442 10.4496 9.70823 10.3856 9.73895L9.97656 10.9865C10.0346 10.9711 10.0956 10.9527 10.1536 10.9373L10.5778 9.64062ZM6.37856 9.37232C5.68905 8.87648 5.17376 8.17308 4.90695 7.36352 4.64014 6.55395 4.6356 5.68002 4.89398 4.86768 5.15236 4.05535 5.66032 3.34657 6.34464 2.8435 7.02896 2.34042 7.8543 2.06904 8.7017 2.06847H8.77802L9.12298 1.01453C8.98255 1.00224 8.84213.996094 8.7017.996094 5.92676.996094 3.67688 3.26683 3.67383 6.07222 3.67281 6.93451 3.8897 7.78289 4.30411 8.53758 4.71851 9.29226 5.31682 9.92845 6.04276 10.3863L6.37856 9.37232ZM9.26607 10.0781C9.18976 10.0904 9.11651 10.0966 9.04021 10.1058L8.69531 11.1505H8.69836C8.77162 11.1505 8.84182 11.1474 8.91507 11.1444L9.26607 10.0781ZM12.625 5.42937C12.6407 5.51578 12.6519 5.60296 12.6586 5.69055L13.2446 3.9053 13.1713 3.75781 12.625 5.42937ZM12.4434 4.73043C12.4678 4.8011 12.4922 4.87177 12.5136 4.94552L13.005 3.45218 12.9134 3.30469 12.4434 4.73043ZM13.6308 5.09588C13.6216 5.04364 13.6094 4.99448 13.6003 4.94531L13.3164 5.81182H13.3988L13.6308 5.09588ZM9.31582 11.1146 9.68514 9.99609C9.61494 10.0145 9.54168 10.0299 9.47148 10.0453L9.11133 11.1361C9.17848 11.1299 9.24868 11.1238 9.31582 11.1146ZM10.1181 9.85547C10.051 9.88005 9.98382 9.90463 9.91362 9.92921L9.53516 11.0846C9.59925 11.0723 9.66335 11.063 9.72744 11.0477L10.1181 9.85547ZM11.9395 3.76169C11.9822 3.82007 12.0219 3.88153 12.0585 3.94298L12.4644 2.71082C12.4217 2.66166 12.379 2.6125 12.3332 2.56641L11.9395 3.76169ZM12.209 4.19762C12.2426 4.26215 12.2761 4.32668 12.3036 4.39121L12.7431 3.05765C12.7065 3.00848 12.6699 2.95932 12.6302 2.91016L12.209 4.19762ZM11.705 6.38672 10.7832 8.1228H11.1464L11.8209 6.7831 11.8423 8.11666H12.1445L12.1323 6.38672H11.705ZM13.7991 6.65404 13.8388 6.38672H12.6637L12.4043 8.11666H13.5794L13.6191 7.84933H12.7431L12.8163 7.36999H13.674L13.7137 7.10266H12.856L12.9232 6.65404H13.7991ZM14.0397 6.38672 14 6.65404H14.5189L14.2991 8.11666H14.6013L14.821 6.65404H15.3399L15.3796 6.38672H14.0397Z" fill="#67AF36"/><path d="M8.69124 10.1297C8.48788 10.1297 8.2848 10.1143 8.08374 10.0836L8.69429 8.2215L2.0332 7.01393L11.3746 3.37891L9.18273 10.0989C9.01974 10.1199 8.85556 10.1301 8.69124 10.1297ZM9.67422 5.17952L5.91629 6.63291L9.01483 7.19215L9.67422 5.17952Z" fill="#E21223"/><path d="M2.27993 14.9337H1.89645L2.1394 13.2024H1.42722L1.18426 14.9337H.800781L1.08184 12.8906H2.57052L2.27993 14.9337ZM4.36992 13.535C4.30323 14.0074 3.9388 14.2161 3.48148 14.2161H3.24805L3.14563 14.9258H2.75977L3.04083 12.8828H3.64106C4.14364 12.8924 4.4247 13.101 4.36992 13.535ZM3.95785 13.535C3.99596 13.2785 3.85543 13.1754 3.59343 13.1754H3.38858L3.28616 13.9235H3.491C3.7411 13.9235 3.91974 13.8396 3.95785 13.535ZM4.54592 13.8594H5.42484L5.38673 14.1614H4.50781L4.54592 13.8594ZM7.09115 14.9358H6.67908L6.75292 13.2428 5.70489 14.9358H5.22852L6.59572 12.9023H7.14832L7.09115 14.9358ZM8.7402 14.9357H8.3853L8.46867 14.3122C8.49471 14.1231 8.53533 13.9363 8.59014 13.7535L7.85176 14.9357H7.44922L7.66359 13.3651H8.02802L7.94465 13.9885C7.92089 14.1749 7.88022 14.3587 7.82317 14.5376L8.55441 13.3555H8.95695L8.7402 14.9357ZM10.3887 13.7541C10.3601 13.9243 10.2482 14.037 10.0147 14.0946 10.2767 14.1329 10.3982 14.2456 10.3696 14.4734 10.322 14.8139 10.0052 14.9746 9.61219 14.9746 9.39921 14.9839 9.18987 14.9168 9.02148 14.7852L9.23585 14.5669C9.35155 14.6551 9.49332 14.7015 9.63839 14.6988 9.81703 14.6988 9.95757 14.6413 9.98615 14.4614 10.0052 14.3008 9.88373 14.2528 9.68603 14.2528H9.44308L9.50024 13.9891H9.66936C9.848 13.9891 9.979 13.9219 9.99806 13.7804 10.0171 13.6485 9.91469 13.591 9.77416 13.591 9.63653 13.5887 9.50192 13.6317 9.39068 13.7133L9.25015 13.5047C9.43159 13.3803 9.64766 13.3173 9.86705 13.3248 10.1743 13.3296 10.4268 13.4807 10.3887 13.7541ZM11.9453 14.9357H11.5904L11.6737 14.3122C11.6998 14.1231 11.7404 13.9363 11.7952 13.7535L11.0568 14.9357H10.6543L10.8687 13.3651H11.2331L11.1497 13.9885C11.126 14.1749 11.0853 14.3587 11.0283 14.5376L11.7595 13.3555H12.162L11.9453 14.9357ZM13.3873 14.2817H12.8633L12.7704 14.9339H12.3965L12.6109 13.3633H12.9848L12.9014 13.9867H13.4255L13.5088 13.3633H13.8828L13.6684 14.9339H13.2945L13.3873 14.2817ZM14.125 14.9339 14.3394 13.3633H15.3803L15.2969 13.6558H14.68L14.5013 14.9339H14.125ZM4.33594 15.5156H4.77182L4.7623 15.59H4.40978L4.38119 15.7842H4.54793C4.5987 15.7824 4.6482 15.8005 4.68608 15.8345 4.70381 15.8502 4.71822 15.8694 4.72845 15.8908 4.73868 15.9122 4.74452 15.9355 4.74562 15.9592 4.74799 15.9858 4.74557 16.0126 4.73848 16.0384 4.73111 16.0656 4.71812 16.0909 4.70037 16.1127 4.68076 16.1386 4.65437 16.1586 4.62415 16.1703 4.58712 16.1854 4.5474 16.1928 4.50743 16.1918H4.23828L4.33594 15.5156ZM4.5384 15.8585H4.36928L4.33117 16.1151H4.50743C4.52845 16.1166 4.54953 16.1135 4.56925 16.106 4.58897 16.0986 4.60688 16.0869 4.62176 16.0719 4.63482 16.0574 4.64474 16.0403 4.65089 16.0218 4.65704 16.0032 4.65929 15.9835 4.65749 15.964 4.65664 15.9497 4.65281 15.9356 4.64624 15.9228 4.63968 15.91 4.63053 15.8987 4.61938 15.8897 4.60864 15.8793 4.59594 15.8712 4.58203 15.8659 4.56812 15.8605 4.55328 15.858 4.5384 15.8585ZM5.23391 16.2018C5.15078 16.2035 5.06974 16.1755 5.00525 16.1226 4.97404 16.0958 4.94863 16.0628 4.9306 16.0257 4.91258 15.9886 4.90231 15.9481 4.90044 15.9068 4.89519 15.8557 4.90029 15.8041 4.91544 15.7551 4.93058 15.706 4.95547 15.6606 4.98857 15.6215 5.02054 15.5838 5.0604 15.5537 5.10529 15.5334 5.15018 15.5131 5.19899 15.503 5.2482 15.504 5.33133 15.5022 5.41236 15.5303 5.47686 15.5831 5.50807 15.61 5.53348 15.643 5.5515 15.6801 5.56953 15.7172 5.5798 15.7576 5.58166 15.7989 5.58674 15.8504 5.58155 15.9023 5.56642 15.9517 5.55129 16.0012 5.52651 16.047 5.49353 16.0867 5.46128 16.1238 5.4213 16.1534 5.37644 16.1733 5.33158 16.1932 5.28292 16.2029 5.23391 16.2018ZM5.23391 16.1274C5.27102 16.1277 5.3077 16.1194 5.34114 16.1032 5.37457 16.087 5.40389 16.0633 5.42684 16.0339 5.45287 16.0021 5.47221 15.9653 5.48367 15.9257 5.49514 15.8861 5.49849 15.8446 5.49353 15.8037 5.49243 15.7724 5.48512 15.7417 5.47203 15.7132 5.45894 15.6848 5.44034 15.6593 5.41731 15.6383 5.3712 15.5979 5.31167 15.5765 5.25058 15.5783 5.21339 15.5776 5.17654 15.5856 5.14302 15.6019 5.1095 15.6181 5.08025 15.6421 5.05765 15.6718 5.00607 15.7367 4.98209 15.8194 4.99096 15.902 4.99206 15.9333 4.99937 15.9641 5.01246 15.9925 5.02555 16.0209 5.04415 16.0464 5.06718 16.0675 5.11349 16.1075 5.17288 16.1289 5.23391 16.1274ZM5.64648 16.2014 5.65601 16.1271C5.68187 16.1273 5.70733 16.1207 5.72985 16.1079 5.75583 16.0859 5.77624 16.0579 5.7894 16.0264 5.81446 15.9708 5.83439 15.913 5.84894 15.8537L5.93946 15.5156H6.35152L6.25387 16.1918H6.1705L6.25625 15.5924H6.00377L5.92993 15.8633C5.91412 15.9238 5.89422 15.9831 5.87038 16.0408 5.85406 16.0794 5.83153 16.115 5.80369 16.1463 5.78344 16.1671 5.75911 16.1834 5.73223 16.1942 5.70429 16.2017 5.67526 16.2041 5.64648 16.2014ZM6.56836 15.5156H6.65173L6.61362 15.7842H6.78035C6.83119 15.782 6.88084 15.8001 6.9185 15.8345 6.93623 15.8502 6.95064 15.8694 6.96087 15.8908 6.9711 15.9122 6.97694 15.9355 6.97805 15.9592 6.98041 15.9858 6.97799 16.0126 6.9709 16.0384 6.96353 16.0656 6.95054 16.0909 6.93279 16.1127 6.91318 16.1386 6.88679 16.1586 6.85657 16.1703 6.81954 16.1854 6.77982 16.1928 6.73986 16.1918H6.4707L6.56836 15.5156ZM6.77082 15.8585H6.60171L6.5636 16.1151H6.73747C6.75885 16.1165 6.78028 16.1134 6.80039 16.106 6.82049 16.0986 6.83882 16.087 6.85419 16.0719 6.86725 16.0574 6.87717 16.0403 6.88332 16.0218 6.88947 16.0032 6.89171 15.9835 6.88992 15.964 6.88906 15.9497 6.88523 15.9356 6.87866 15.9228 6.8721 15.91 6.86295 15.8987 6.85181 15.8897 6.84119 15.8791 6.82851 15.8709 6.81457 15.8655 6.80063 15.8602 6.78573 15.8578 6.77082 15.8585ZM7.94089 15.5156H8.02426L7.9266 16.1918H7.11914L7.2168 15.5156H7.30016L7.21203 16.1151H7.49071L7.57884 15.5156H7.66221L7.57408 16.1151H7.85276L7.94089 15.5156ZM8.58475 16.1879H8.14648L8.24414 15.5117H8.68241L8.67288 15.5861H8.31798L8.28463 15.8043H8.63477L8.62524 15.8786H8.27511L8.24176 16.1112H8.59904L8.58475 16.1879ZM9.21094 16.2014 9.22046 16.1271C9.24632 16.1273 9.27178 16.1207 9.2943 16.1079 9.32028 16.0859 9.34069 16.0579 9.35385 16.0264 9.37891 15.9708 9.39885 15.913 9.4134 15.8537L9.50391 15.5156H9.91359L9.81594 16.1918H9.73495L9.8207 15.5924H9.56822L9.49438 15.8633C9.47857 15.9238 9.45867 15.9831 9.43483 16.0408 9.41852 16.0794 9.39598 16.115 9.36814 16.1463 9.3479 16.1671 9.32356 16.1834 9.29669 16.1942 9.26876 16.2018 9.23972 16.2042 9.21094 16.2014ZM10.1161 16.1879H10.0352L10.1328 15.5117H10.2162L10.1376 16.0513 10.602 15.5117H10.6878L10.5901 16.1879H10.5068L10.5878 15.6364 10.1161 16.1879ZM11.0571 16.1997C10.9993 16.2009 10.942 16.1877 10.8904 16.1613 10.8446 16.1394 10.807 16.1033 10.7832 16.0582L10.8404 16.0102C10.8601 16.0461 10.89 16.0753 10.9261 16.0942 10.9645 16.114 11.0069 16.1247 11.05 16.1253 11.0934 16.1274 11.1359 16.1129 11.1691 16.0846 11.1828 16.072 11.1934 16.0563 11.2001 16.0388 11.2067 16.0213 11.2091 16.0025 11.2072 15.9839 11.2057 15.9685 11.2006 15.9538 11.1923 15.9409 11.1841 15.9279 11.1728 15.9172 11.1595 15.9095 11.1235 15.8885 11.0821 15.8785 11.0404 15.8808H10.9166L10.9261 15.8064H11.0786C11.1197 15.8082 11.1604 15.7973 11.1953 15.7752 11.2103 15.7663 11.2224 15.7532 11.23 15.7374 11.2376 15.7216 11.2405 15.7039 11.2381 15.6865 11.2367 15.6706 11.2314 15.6552 11.2227 15.6418 11.214 15.6284 11.2021 15.6174 11.1881 15.6098 11.152 15.5885 11.1108 15.5777 11.069 15.5786 11.0374 15.5774 11.0059 15.5827 10.9764 15.5943 10.9469 15.6058 10.92 15.6234 10.8975 15.6458L10.857 15.5882C10.8832 15.561 10.9149 15.5398 10.9499 15.5259 10.988 15.5115 11.0284 15.5042 11.069 15.5043 11.131 15.5012 11.1924 15.5171 11.2453 15.5498 11.2671 15.5629 11.2854 15.581 11.2987 15.6027 11.3119 15.6245 11.3198 15.6491 11.3215 15.6745 11.3238 15.6971 11.3204 15.7199 11.3116 15.7409 11.3029 15.7618 11.2891 15.7802 11.2715 15.7944 11.2366 15.8259 11.1921 15.8445 11.1453 15.8472 11.1809 15.8537 11.2139 15.8704 11.2405 15.8951 11.2664 15.9204 11.2818 15.9548 11.2834 15.9911 11.2857 16.0188 11.2815 16.0467 11.2712 16.0725 11.2608 16.0983 11.2446 16.1213 11.2239 16.1397 11.1857 16.1805 11.1286 16.1997 11.0571 16.1997ZM11.5361 16.1879H11.4551L11.5527 15.5117H11.6361L11.5575 16.0513 12.022 15.5117H12.1077L12.0101 16.1879H11.9267L12.0077 15.6364 11.5361 16.1879ZM12.7883 16.1879H12.7049L12.7501 15.8786H12.3571L12.3119 16.1879H12.2285L12.3262 15.5117H12.4095L12.3667 15.8019H12.7597L12.8025 15.5117H12.8859L12.7883 16.1879ZM13.0892 16.1879H13.0059L13.1035 15.5117H13.5418L13.5323 15.5861H13.1774L13.0892 16.1879ZM14.1338 16.1879H14.0433L14.0051 16.0393H13.6693L13.5883 16.1879H13.4883L13.8575 15.5117H13.9599L14.1338 16.1879ZM13.9932 15.9649 13.9027 15.6004 13.7074 15.9649H13.9932ZM14.3265 16.1999C14.3125 16.1999 14.299 16.1948 14.2884 16.1855 14.2834 16.181 14.2793 16.1754 14.2765 16.1692 14.2736 16.1631 14.272 16.1564 14.2717 16.1496 14.271 16.1418 14.2719 16.1339 14.2743 16.1265 14.2768 16.119 14.2808 16.1122 14.286 16.1064 14.2916 16.1008 14.2984 16.0964 14.3057 16.0935 14.3131 16.0906 14.321 16.0893 14.3289 16.0896 14.3355 16.0894 14.3421 16.0906 14.3483 16.0931 14.3544 16.0956 14.36 16.0993 14.3646 16.104 14.3697 16.1086 14.3737 16.1141 14.3766 16.1203 14.3795 16.1265 14.3811 16.1332 14.3813 16.14 14.3817 16.1556 14.3766 16.1709 14.367 16.1831 14.3557 16.1931 14.3415 16.199 14.3265 16.1999ZM14.3789 15.9985H14.3146L14.3718 15.5117H14.4671L14.3789 15.9985Z" fill="#323237"/></svg>