<svg xmlns="http://www.w3.org/2000/svg" viewBox="0 0 255 57.1" style="enable-background:new 0 0 255 57.1" xml:space="preserve"><path d="M94.3 35.4h-4.7l3-21.1h-8.7l-3 21.1h-4.7l3.4-24.9h18.3L94.3 35.4zM119.9 18.3c-.8 5.8-5.3 8.3-10.9 8.3h-2.9l-1.3 8.6h-4.7l3.4-24.9h7.4C117.1 10.4 120.6 13 119.9 18.3zM114.8 18.3c.5-3.1-1.3-4.4-4.5-4.4h-2.5l-1.3 9.1h2.5C112.2 23 114.4 22 114.8 18.3zM122.1 22.2h10.8l-.5 3.7h-10.8L122.1 22.2zM153.3 35.4h-5.1l.9-20.6-12.9 20.6h-5.9l16.8-24.8h6.8L153.3 35.4zM173.5 35.4h-4.4l1-7.6c.3-2.3.8-4.6 1.5-6.8l-9.1 14.4h-4.9l2.6-19.1h4.5l-1 7.6c-.3 2.3-.8 4.5-1.5 6.7l9-14.4h4.9L173.5 35.4zM193.7 20.9c-.3 2.1-1.7 3.5-4.6 4.2 3.2.5 4.7 1.8 4.4 4.6-.6 4.2-4.5 6.1-9.3 6.1-2.6.1-5.2-.7-7.2-2.3l2.6-2.6c1.4 1.1 3.2 1.6 4.9 1.6 2.2 0 3.9-.7 4.3-2.9.2-2-1.3-2.5-3.7-2.5h-3l.7-3.2h2.1c2.2 0 3.8-.8 4-2.5.2-1.6-1-2.3-2.8-2.3-1.7 0-3.3.5-4.7 1.5l-1.7-2.5c2.2-1.5 4.9-2.3 7.6-2.2C191.1 15.8 194.2 17.6 193.7 20.9zM212.8 35.4h-4.4l1-7.6c.3-2.3.8-4.6 1.5-6.8l-9.1 14.4H197l2.6-19.1h4.5l-1 7.6c-.3 2.3-.8 4.5-1.5 6.7l9-14.4h4.9L212.8 35.4zM230.5 27.4h-6.4l-1.1 8h-4.6l2.6-19.1h4.6l-1 7.6h6.4l1-7.6h4.6l-2.6 19.1h-4.6L230.5 27.4zM239.6 35.4l2.6-19.1H255l-1 3.6h-7.6l-2.2 15.6H239.6zM110 47.4h-1.2V45h3.6l.2-1.1h-5.1v9.4h2.5c2.1 0 3.6-.8 3.6-3C113.6 48.4 112.2 47.4 110 47.4zM110.1 52.3h-1.3v-3.8h1.3c1.4 0 2.2.5 2.2 1.9C112.2 51.9 111.3 52.3 110.1 52.3zM120.9 43.7c-2.3 0-4 1.8-4 4.9 0 3.2 1.6 4.9 4 4.9 2.3 0 4-1.7 4-4.9C124.9 45.4 123.3 43.7 120.9 43.7zM120.9 44.8c1.6 0 2.6 1.1 2.6 3.8 0 2.7-1 3.8-2.6 3.8-1.5 0-2.6-1.1-2.6-3.8C118.3 45.9 119.3 44.8 120.9 44.8zM129.8 43.9l-.6 5.2c-.3 2.4-.4 2.9-1.4 3.3l.3 1c1.6-.5 2.1-1.1 2.4-4.4l.4-4.1h2.9v8.3h1.3v-9.4H129.8zM142.6 47.4h-1.2v-3.5h-1.3v9.4h2.5c2.1 0 3.6-.8 3.6-3C146.2 48.3 144.8 47.4 142.6 47.4zM142.7 52.3h-1.3v-3.9h1.3c1.4 0 2.2.5 2.2 1.9C144.8 51.9 143.9 52.3 142.7 52.3zM160 43.9h-1.3v8.3h-3.1v-8.3h-1.2v8.3h-3.1v-8.3h-1.3v9.4h9.9V43.9zM170 43.9h-5.1v9.4h5.2v-1h-3.9v-3.2h3.2v-1h-3.2v-3.1h3.6L170 43.9zM181.1 43.9l-.6 5.2c-.3 2.4-.4 2.9-1.4 3.3l.3 1c1.6-.5 2.1-1.1 2.4-4.4l.4-4.1h2.9v8.3h1.3v-9.4L181.1 43.9zM198 43.9h-1.6l-3.8 8c.1-1.1.2-2.3.2-3.4v-4.6h-1.3v9.4h1.7l3.8-8c-.1 1.1-.2 2.2-.2 3.4v4.6h1.3L198 43.9zM204.6 53.5c1.9 0 3.3-1.1 3.3-2.9 0-1.2-.9-2.3-2.2-2.3 1.1-.1 1.9-1.1 1.8-2.1 0-1.3-.9-2.4-2.8-2.4-1.1 0-2.2.4-3 1.2l.7.8c.6-.5 1.4-.9 2.2-.9.4-.1.8.1 1.1.3.3.3.5.7.4 1.1 0 1-.7 1.6-1.8 1.6h-.7l-.2 1.1h.9c1.4 0 2.1.6 2.1 1.7 0 1.1-.7 1.8-2 1.8-.8 0-1.6-.3-2.2-.9l-.8.7C202.4 53.1 203.5 53.5 204.6 53.5zM218.8 43.9h-1.6l-3.8 8c.1-1.1.2-2.3.2-3.4v-4.6h-1.3v9.4h1.7l3.8-8c-.1 1.1-.2 2.2-.2 3.4v4.6h1.3L218.8 43.9zM228.9 53.3h1.3v-9.4h-1.3v3.9H225v-3.9h-1.3v9.4h1.3v-4.4h3.9V53.3zM240.6 43.9h-5.4v9.4h1.3V45h3.9L240.6 43.9zM247.9 53.3h1.4l-3-9.4h-1.6l-3 9.4h1.3l.7-2.4h3.6L247.9 53.3zM243.9 49.9l1.5-4.9 1.5 4.9H243.9zM253.9 43.9h-1.4l.1 6.3h1.1L253.9 43.9zM253.2 51.6c-.5 0-.9.4-.9.9v0c0 .3.1.5.3.7.2.2.4.3.7.3.3 0 .5-.1.7-.3.2-.2.3-.4.3-.7 0-.3-.1-.5-.3-.7C253.7 51.7 253.5 51.6 253.2 51.6L253.2 51.6z"/><linearGradient id="a" gradientUnits="userSpaceOnUse" x1="31.072" y1="14.674" x2="61.792" y2="78.971"><stop offset="0" style="stop-color:#68b037"/><stop offset="1" style="stop-color:#53a229"/></linearGradient><path d="M37.7,6c12.4,0,22.5,10.2,22.5,22.6c0,12.5-10.1,22.6-22.6,22.6S15.1,41.1,15.1,28.6 c0-6,2.4-11.7,6.6-16C26,8.4,31.7,6,37.7,6 M37.7,0C22,0,9.3,12.8,9.3,28.5S22,57.1,37.7,57.1c15.7,0,28.4-12.8,28.4-28.5 c0-7.6-3-14.8-8.3-20.2C52.5,3,45.2,0,37.7,0z" style="fill:url(#a)"/><linearGradient id="b" gradientUnits="userSpaceOnUse" x1="44.251" y1="60.25" x2="30.695" y2="32.424"><stop offset="0" style="stop-color:#ab212f"/><stop offset="1" style="stop-color:#e31523"/></linearGradient><path d="M37.7,51.3c-1.2,0-2.3-0.1-3.4-0.3l3.4-10.5L0,33.8l52.8-20.5L40.4,51.1 C39.5,51.3,38.6,51.3,37.7,51.3z M43.2,23.5L22,31.7l17.5,3.1L43.2,23.5z" style="fill:url(#b)"/></svg>